<?xml version="1.0" standalone="no"?>
<!DOCTYPE svg PUBLIC "-//W3C//DTD SVG 20010904//EN"
 "http://www.w3.org/TR/2001/REC-SVG-20010904/DTD/svg10.dtd">
<svg version="1.0" xmlns="http://www.w3.org/2000/svg"
 width="512.000000pt" height="512.000000pt" viewBox="0 0 512.000000 512.000000"
 preserveAspectRatio="xMidYMid meet">

<g transform="translate(0.000000,512.000000) scale(0.100000,-0.100000)"
fill="#000000" stroke="none">
<path d="M2455 4244 c-180 -30 -340 -115 -461 -248 -140 -152 -203 -328 -204
-563 l0 -103 -317 0 c-298 0 -320 -1 -350 -20 -18 -11 -35 -30 -38 -42 -3 -13
-4 -446 -3 -963 l3 -940 28 -69 c55 -138 153 -246 282 -311 131 -66 107 -65
1165 -65 1057 0 1033 -1 1165 65 127 63 227 173 282 311 l28 69 3 940 c1 517
0 950 -3 963 -3 12 -20 31 -38 42 -30 19 -52 20 -349 20 l-318 0 0 96 c0 118
-14 214 -46 307 -80 235 -285 425 -529 491 -61 17 -245 28 -300 20z m250 -219
c147 -39 293 -159 358 -295 45 -97 57 -156 57 -290 l0 -110 -560 0 -560 0 0
110 c0 134 12 193 57 290 64 134 210 255 354 294 72 20 220 20 294 1z m-915
-1040 c0 -181 17 -215 107 -215 43 0 78 25 94 67 5 13 9 83 9 154 l0 129 560
0 560 0 0 -129 c0 -70 5 -142 11 -159 13 -39 48 -62 94 -62 87 0 105 36 105
215 l0 135 255 0 255 0 0 -834 c0 -807 -1 -836 -20 -897 -36 -114 -115 -197
-226 -239 -54 -20 -74 -20 -1034 -20 -966 0 -980 0 -1035 21 -110 41 -196 134
-229 248 -14 48 -16 156 -16 888 l0 833 255 0 255 0 0 -135z"/>
</g>
</svg>
