<svg id="Layer_1" data-name="Layer 1" xmlns="http://www.w3.org/2000/svg" viewBox="0 0 275.51 169.86"><defs><style>.cls-1{font-size:38.52px;letter-spacing:0.03em;}.cls-1,.cls-2,.cls-4{fill:#1e261e;}.cls-1,.cls-2{font-family:ConcertOne-Regular, Concert One;}.cls-2{font-size:63.66px;letter-spacing:0.05em;}.cls-3{letter-spacing:-0.03em;}.cls-5{fill:#ceae2c;}</style></defs><text class="cls-1" transform="translate(56.48 60.13)">FINNISH</text><text class="cls-2" transform="translate(56.64 157.29)">BE<tspan class="cls-3" x="71.33" y="0">AR</tspan></text><text class="cls-2" transform="translate(56.89 109.76)">BEER</text><path class="cls-4" d="M123.63,78.59a1.85,1.85,0,0,0-.23,0h-.26l-.13,0a1.48,1.48,0,0,1-.21-.13.65.65,0,0,0-.16-.09,2.53,2.53,0,0,1-.28,0c-.17,0-.34,0-.52.06a.93.93,0,0,1-.15.13.11.11,0,0,1-.06,0s0-.09,0-.13a.6.6,0,0,1,.06-.11c0-.06.07-.08.11-.14l0-.07c.06-.07,0-.15,0-.13l-.07,0a2.32,2.32,0,0,0-.42.1,1.83,1.83,0,0,0-.25.06,1.74,1.74,0,0,1-.55.21c-.06,0-.06,0,0-.09s.07,0,.07-.06l.07-.05a3.73,3.73,0,0,1,.34-.35c.1-.09.12-.11.08-.15-.22,0-.42.14-.65.19a1.93,1.93,0,0,1-.21.13,1.35,1.35,0,0,0-.26.15s-.08,0-.08,0,0-.09.11-.16l.09-.09s0-.07,0-.11a.84.84,0,0,0,0-.12V77.5l.07-.06.13-.08a1.7,1.7,0,0,0,.14-.1.82.82,0,0,1,.25-.07s.1-.07.13-.2,0-.1.06-.11a.09.09,0,0,0,0,0,.55.55,0,0,0,.26-.19.11.11,0,0,1,.07,0l.22-.17a.85.85,0,0,0,.3-.19s.08-.07.15-.1l.28-.16a.66.66,0,0,1,.33-.09h.13l.38-.08a.57.57,0,0,1,.18,0h.41a1.73,1.73,0,0,0,.45-.05,1.23,1.23,0,0,0,.39-.21,2,2,0,0,0,.36-.36A.81.81,0,0,1,125,75c0-.08.1-.16.14-.24a1,1,0,0,0,.13-.27.88.88,0,0,0,.12-.19c0-.06.06-.14.1-.21a1.3,1.3,0,0,1,.18-.23l.11-.11a.8.8,0,0,1,.13-.22.43.43,0,0,0,.15-.15.77.77,0,0,0,.17-.19,5.11,5.11,0,0,1,.48-.55l.06-.1a.05.05,0,0,0,0,0,.6.6,0,0,1,.08-.08s.06,0,.08-.07.15-.14.22-.22l0,0c.07,0,.07-.13.1-.2s.06-.11.14-.17l.08-.1s0,0,0,0,.16-.18.23-.3,0-.06,0-.06a.52.52,0,0,0,.18-.32c.14-.06.11-.21.12-.35a.92.92,0,0,0,.16-.31.21.21,0,0,0,0-.1.54.54,0,0,0,.09-.24,1,1,0,0,0,.17-.38.29.29,0,0,0,.07-.22c0-.07,0-.18.06-.27a.66.66,0,0,0,.05-.28c0-.09.06-.18.09-.26a3.42,3.42,0,0,0,.12-.63s0,0,0-.07a.49.49,0,0,0,0-.11.31.31,0,0,1,.06-.17c0-.11.08-.23.11-.34a1.63,1.63,0,0,0,.17-.5.4.4,0,0,0,0-.24.39.39,0,0,1,.1-.16s0,0,0,0-.11-.08-.11-.1a.18.18,0,0,1,.05-.07c.08-.06,0-.06,0-.12s.05-.12.08-.2,0,0,0-.06-.06-.08-.09-.12a.81.81,0,0,0-.25-.08s0,0-.08,0-.11,0-.15,0-.1,0-.11,0l-.15.11s-.05,0-.07,0-.15-.12-.18-.1-.09.08-.13.12,0,0-.1,0a.14.14,0,0,0-.13,0,.14.14,0,0,1-.09,0,1.5,1.5,0,0,0-.13-.11.55.55,0,0,0-.21.19.09.09,0,0,1-.12,0s-.08,0-.09,0-.06.07-.16.07-.1,0-.09,0-.1-.11-.15-.08a.22.22,0,0,0-.05.13s0,0,0,.06a.2.2,0,0,1-.13,0l-.06,0-.18,0c-.08,0-.09,0-.14,0l-.1.06s0,0,0,.08,0,0,0,.07l-.09,0-.12.07-.11-.07-.06,0a1.17,1.17,0,0,1-.26.17c-.1,0-.12,0-.16.11a.14.14,0,0,1-.17.08c-.08,0-.11,0-.11,0a.37.37,0,0,1,0,.18c0,.07,0,.11,0,.11s-.06,0-.06-.12a.34.34,0,0,0,0-.1s0,0-.06,0-.05,0-.06,0l0,0a1.18,1.18,0,0,1,0,.27c0,.07,0,.09-.08.09s0,0,0-.12V66.9c-.18,0-.19,0-.16.19a.22.22,0,0,1,0,.1s0,0,0,0a.06.06,0,0,1-.06,0,.05.05,0,0,0,0,0s0,0,0,.06,0,.09-.08,0-.12,0-.13,0a.77.77,0,0,0,0,.1c0,.08,0,.09-.1.11s-.08,0,0,0a.13.13,0,0,0,0-.06.07.07,0,0,1,0,0,.29.29,0,0,0,0-.12V67.1h0c-.08,0-.1,0-.15-.07a.14.14,0,0,0-.14,0c-.1,0-.12,0-.08.06a.85.85,0,0,1,.16,0s0,0,0,.06,0,0,0,.07a.47.47,0,0,0,0,.1c0,.06.06.24,0,.25s-.06,0-.07-.12a.3.3,0,0,0,0-.12.1.1,0,0,0-.1,0s0,.09,0,.18,0,.11,0,.12-.07,0-.07-.08a.1.1,0,0,0,0-.09.16.16,0,0,0-.09,0s0,0,0,0,0-.06,0-.08-.08-.08-.12-.11a.79.79,0,0,0,0,.21c0,.06,0,.08.07,0s.08,0,.08.07,0,.08,0,.11a.11.11,0,0,1,0,.08.11.11,0,0,0,0,0s0,.18,0,.18l-.06,0s-.06,0,0-.13a.22.22,0,0,0-.07-.19s-.06,0-.1,0,0,.09,0,.19a.28.28,0,0,1,0,.17c0,.08,0,.08,0,.08s-.08,0-.07-.08a1.17,1.17,0,0,0-.12-.2s-.06-.12-.08-.12-.06,0,0,.1,0,.07,0,.09,0,.12,0,.16l.12.18,0,0,0,.05s-.06-.05-.06-.08-.07-.09-.11-.09,0,0,0,.07,0,.19,0,.28v.06H123c-.06,0-.06,0-.08.06s0,.06,0,.06,0,0,0,0a.13.13,0,0,1,0-.11c0-.14,0-.2-.06-.17s-.1.11,0,.2,0,.25,0,.27h0s0,0,0-.11a.92.92,0,0,0,0-.25s0,0-.06,0-.15,0-.15,0a.06.06,0,0,1,0,.06s.05,0,.07.06a.08.08,0,0,0,0,.12.09.09,0,0,1,0,.09s0,0,0,0h-.06s0,.13-.06.15,0,.05,0,.09a.42.42,0,0,1,0,.19h0s0,0,0-.08V69l0,0c-.1,0-.15,0-.11,0s0,.28,0,.28l0,0c0-.07-.09,0-.1.08s0,.07,0,.07a.76.76,0,0,1-.06-.2s0,0-.06,0a1.37,1.37,0,0,1-.07.24s0,0,0-.1,0-.09,0-.09,0,0,0,.11-.07.15-.11.15,0-.08,0-.16a.78.78,0,0,0,0-.21c0-.07,0-.1,0-.11l-.13,0s0-.1-.06-.16-.06,0-.1-.06-.12,0-.13,0,0,.06,0,.06,0,0,0-.09,0-.14-.09-.16,0,0,0,0a0,0,0,0,0,0,0h-.09c-.07,0-.07,0-.07,0s0,0,0,0-.1,0-.16,0a.25.25,0,0,1-.17,0c-.07-.05-.07.06-.09.08a.31.31,0,0,1-.1-.05s0,0-.07,0a.2.2,0,0,0-.08,0s-.11,0-.13,0,0,0-.06,0a.13.13,0,0,0-.12,0l-.19.07s0,0-.11,0a.28.28,0,0,0-.26.18s0,0-.12,0-.19.1-.32.15-.11.06-.15.1,0,0-.07.06-.2.09-.2.12,0,0-.15,0a.72.72,0,0,0-.26.08.14.14,0,0,1-.14,0s0,0-.12,0-.18,0-.2,0a.77.77,0,0,1-.21,0,.28.28,0,0,0-.11,0l-.18,0h-.17a.79.79,0,0,1-.39-.13c-.13,0-.09-.06-.14-.14l-.08-.06V69c0-.08,0-.11,0-.13a.27.27,0,0,1-.06-.2c0-.1,0-.1,0-.1s0,0,0-.09a.22.22,0,0,0,0-.16,1.63,1.63,0,0,0-.17-.2s0-.07,0-.07a.14.14,0,0,1,.09,0l.08.06c0,.07.1,0,.14.07a.86.86,0,0,0,0-.32s.14.1.18.22a.29.29,0,0,0,.3.12s0,0,0,0a.94.94,0,0,1,0-.09s0,0-.07,0,0,0-.06,0,0-.08-.06-.12,0-.14,0-.21.07-.09.1-.13a.07.07,0,0,1,0,0c.08-.09.17-.16.25-.24s.07,0,.05,0l-.07,0a.71.71,0,0,0,.27-.45.17.17,0,0,0,0-.11s-.14,0-.21,0-.2.14-.32.2l-.15.11a2.52,2.52,0,0,1-.33.24l-.12.06-.38.11s-.08.07-.11.09l0,.07a.45.45,0,0,1,.06.12l0,.11s0,.06,0,.07-.06,0-.07,0a.76.76,0,0,1-.24-.17s-.07-.06-.11-.09-.08-.08-.14-.12l-.13,0-.12,0a.42.42,0,0,0-.16,0,.39.39,0,0,1-.24,0l-.2,0-.26-.09a1.15,1.15,0,0,1-.53-.23l-.12-.09-.08-.05s-.06-.16,0-.18.06,0,.06,0,0,.05,0,0,.05,0,0-.08l0,0h0s0,0,.06,0a.05.05,0,0,0,.08,0c0-.06,0-.07-.09,0s-.08,0-.08,0,0,0-.05,0,0,0-.1,0a.54.54,0,0,1-.25-.09l-.17-.14a.29.29,0,0,1-.13-.23s0-.07.06-.11l.14-.12a.42.42,0,0,0,.14-.09.39.39,0,0,1,.14-.07c.15,0,.21-.1.2-.16a.79.79,0,0,1,.19-.22,2,2,0,0,0,.22-.27c.06,0,.1-.13.15-.2a3.22,3.22,0,0,0,.32-.32.65.65,0,0,1,.13-.16.69.69,0,0,1,.13-.2s0-.06.08-.06.07,0,.08-.08l.17-.21s0,0,.05,0,.14-.2.22-.29l.18-.21a2.43,2.43,0,0,0,.14-.2.22.22,0,0,0,0-.08.62.62,0,0,0,.12-.19.57.57,0,0,0,.08-.27.51.51,0,0,0,0-.14.51.51,0,0,1-.06-.27s0,0,.06,0,0-.11,0-.14,0,0,0,0,.05-.06,0-.09a.19.19,0,0,0-.09,0c-.08,0-.11-.07-.15-.13a1.63,1.63,0,0,1-.11-.17.31.31,0,0,1,0-.08.7.7,0,0,1,.08-.23,1,1,0,0,0,.13-.2l.08-.13a.93.93,0,0,0,.11-.19.7.7,0,0,1,.08-.2c0-.09.06-.13.1-.13l.37-.71a3.27,3.27,0,0,1,.19-.28,1,1,0,0,0,.13-.22,1.25,1.25,0,0,1,.08-.12.78.78,0,0,0,.15-.1s0,0,0,0a3.17,3.17,0,0,1,.34-.39l.13-.14a.85.85,0,0,0-.07-.41.15.15,0,0,1,0-.1s0-.09,0-.12a.19.19,0,0,1,0-.09,2,2,0,0,1,0-.27,2.77,2.77,0,0,1,.1-.26.41.41,0,0,0,0-.14c0-.09,0-.13,0-.15a1,1,0,0,0,.07-.15c.07-.11.18-.22.26-.35a.81.81,0,0,1,.14-.12.39.39,0,0,1,.22-.08,1.67,1.67,0,0,1,.29.06.76.76,0,0,1,.1.14l.24.11a1.31,1.31,0,0,1,.25.22,1.66,1.66,0,0,0,.39.18.26.26,0,0,0,.19-.07l.16,0a.66.66,0,0,1,.23,0c.09,0,.13-.1.18-.15s.05,0,.07-.06,0,0,0-.08a.36.36,0,0,1,.08-.18,1.67,1.67,0,0,1,.08-.2.33.33,0,0,1,.1-.15,1.83,1.83,0,0,0,.16-.26l.06-.08a1.14,1.14,0,0,1,.3-.21.93.93,0,0,0,.26-.18,2.45,2.45,0,0,1,.35,0l.07,0a1.11,1.11,0,0,1,.29.18h.07c0,.11.06.11.13.17s0,0,.05.12,0,.11.08.14a.34.34,0,0,0,.31-.06.46.46,0,0,1,.2-.09s.06-.09.09-.13a.52.52,0,0,0,.16-.17l.08-.09s0,0,.05-.06.12,0,.19,0,0,0,0-.12.15-.11.23-.14.13,0,.13-.07a0,0,0,0,1,0,0l.37-.31a.05.05,0,0,1,0,0h.14c.11,0,.13,0,.09-.06s0,0,.06-.06.07,0,.07,0a2.71,2.71,0,0,1,.35-.24,1.69,1.69,0,0,0,.49-.23l.2-.11a.54.54,0,0,0,.18,0,1.14,1.14,0,0,0,.15-.16c0-.06.07-.07.1-.11s.1,0,.13.07a.19.19,0,0,1,.08-.07l.1-.11s.07,0,.08,0,0,0,.05,0,.06,0,.11-.06l.06-.07h.08c.07,0,.08,0,.08,0s0,0,0,0,0,0,0,0,.17-.14.19-.08a0,0,0,0,0,0,0,.25.25,0,0,0,.14-.08.8.8,0,0,1,.24,0c.08,0,.09,0,.12,0l0-.06a.91.91,0,0,1,.33-.15l.13-.06a2.18,2.18,0,0,0,.38-.3s.06,0,.14,0,.14,0,.15-.05l0,0s0,0,0,0a.1.1,0,0,1,.12-.06.18.18,0,0,0,.17-.07s.15-.1.17-.08.14-.13.16-.17a.14.14,0,0,1,.06-.08.47.47,0,0,1,.2-.06c.13,0,.13,0,.19-.06l.09-.05c.06,0,.18-.08.18-.11l0,0,0,0a0,0,0,0,1,0,0s.11-.09.11-.12h0s0,0,0,0,0,0,.11,0a.15.15,0,0,0,.16-.07,3,3,0,0,1,.68-.4.53.53,0,0,1,.12-.1.66.66,0,0,1,.28-.16l.24-.08a1.22,1.22,0,0,0,.19-.12.25.25,0,0,1,.12,0,.79.79,0,0,0,.24-.09l.08,0a.61.61,0,0,0,.25-.07.13.13,0,0,1,.13,0c.06,0,.08,0,.11,0a.53.53,0,0,1,.3-.09s.07,0,.18,0,.07,0,.11-.07a1,1,0,0,1,.23,0s0,0,.06,0,.08,0,.14,0a2.22,2.22,0,0,0,.3-.11c.05,0,.06,0,.1,0a.51.51,0,0,0,.3,0,.17.17,0,0,1,.15,0c0,.08,0,.09.12,0l.12-.11.05,0s0,0,0,0,0,.05.05.08.26,0,.4,0a3.55,3.55,0,0,1,.47.06c.11,0,.15,0,.23-.07s.07,0,.16,0l.21.06c.12,0,.13,0,.22.07a.12.12,0,0,0,.11,0,1.24,1.24,0,0,1,.27,0l.09,0a.31.31,0,0,0,.25,0l.05,0c0,.07.1.08.16.12s.1,0,.17,0,.08,0,.07.1.05.08.15.11.32,0,.48,0,0,0,0,.07,0,.1,0,.13a.27.27,0,0,0,.14,0,.34.34,0,0,1,.16,0l.09.07c0,.08.05.1.17.08a.13.13,0,0,1,.11,0,.15.15,0,0,0,.17,0s0,0,.08,0,0,0,0,.1,0,0,.11,0a1,1,0,0,1,.33.13c0,.1.16.12.26.16s.08,0,.1,0,0,0,.09,0,0,.08,0,.08l0,0c-.08.06,0,.08.05.12s.16.07.22.05.1,0,.09,0,0,.08.13.1.17.1.27.17.29.1.44.13a2,2,0,0,1,.37.09s0,0,.09,0l.15,0a.14.14,0,0,1,.14,0,.54.54,0,0,0,.28.08l.18,0c.24,0,.47,0,.71,0,.07,0,.08,0,.24,0a1.34,1.34,0,0,1,.4,0,.38.38,0,0,0,.18,0l.36,0a1,1,0,0,1,.29,0c.15,0,.21,0,.23,0h.08l.24-.06.21-.05a.89.89,0,0,1,.36,0,1.38,1.38,0,0,0,.27-.08l.16,0,.19,0a.86.86,0,0,0,.23,0,3,3,0,0,0,.43-.08c.13,0,.25,0,.38-.08s.2,0,.3-.05l.16,0a3.06,3.06,0,0,0,.5-.12l.25,0a.39.39,0,0,1,.18,0l.27-.05.16-.06a.73.73,0,0,0,.21-.06.32.32,0,0,1,.14,0,2.27,2.27,0,0,1,.35,0c.13,0,.26,0,.39,0a.43.43,0,0,0,.31,0,.38.38,0,0,1,.22,0,1.34,1.34,0,0,0,.46,0h.25l.39,0a.87.87,0,0,1,.28,0,1.67,1.67,0,0,0,.51,0h.23c.08,0,.09,0,.14,0s.12,0,.19.08a4.07,4.07,0,0,1,.68.13.92.92,0,0,0,.26,0h.12a.17.17,0,0,1,.12,0c.09,0,.16,0,.19,0a.1.1,0,0,1,.15,0,1.9,1.9,0,0,0,.41,0,1.83,1.83,0,0,1,.32.07.38.38,0,0,1,.23.06l.13,0c.1,0,.17.1.25.15s.06.05.13,0l.24.06a.34.34,0,0,0,.12.06.5.5,0,0,0,.21,0c0,.06.09.05.13.08l.28.06.35.17c.08,0,.12.06.18.11a.11.11,0,0,1,.07,0l.27,0s.05,0,.1.08l.07.08.23,0c.06,0,.1,0,.1.06v.07a.11.11,0,0,0,0,.06l.13,0a.58.58,0,0,1,.3.13.3.3,0,0,0,.11.07l.16,0a.24.24,0,0,1,.16.08,3.71,3.71,0,0,1,.53.26.37.37,0,0,0,.22.1c.19,0,.08.07.15.13a.13.13,0,0,0,.07,0c.13.05.25.13.37.19a.26.26,0,0,0,.17.11l.14.06a.66.66,0,0,0,.39.25l.09.08c.06.19.24.29.37.45l.1,0c.07,0,.1.07.15.1a2.14,2.14,0,0,0,.13.19.27.27,0,0,0,.05.11.16.16,0,0,0,.12.08.71.71,0,0,1,.18.12c0,.07.07.1.2.17l.23.24a1,1,0,0,1,.09.13.47.47,0,0,1,0,.1.91.91,0,0,1,.28.4l.09,0c.1,0,.1.07.16.13s.1.15.18.22.19.21.27.36l.08.05a.48.48,0,0,1,.16.19c.07.13.2.21.28.36s.07,0,.07,0a.57.57,0,0,1,.14.13s.06.11.08.11a.39.39,0,0,1,.1.08.41.41,0,0,1,.1.22.87.87,0,0,1,.24.23c.11.09.1.24.16.38s.07.11.11.17a.41.41,0,0,0,.08.13l.17.18a.54.54,0,0,0,0,.12,1.08,1.08,0,0,1,.08.19l0,.17a.75.75,0,0,0,.06.13l.15.29s0,0,0,.09,0,.11,0,.18a.74.74,0,0,1,0,.37.75.75,0,0,1-.2.3c0,.06-.07.05-.11.08a.27.27,0,0,0,.06.21.17.17,0,0,1,0,.07.84.84,0,0,1,.11.21,1,1,0,0,0,.07.25c.06.05,0,.12,0,.19s0,.06,0,.16l.06.19a3.11,3.11,0,0,0,.16.49.22.22,0,0,1,0,.15.24.24,0,0,0,0,.15,1.4,1.4,0,0,1,.1.16,1,1,0,0,0,.16.25c0,.08,0,.18,0,.28s0,.13,0,.19a.9.9,0,0,1,.11.27c0,.11,0,.23.06.35a2,2,0,0,1,0,.24.33.33,0,0,0,.06.21.37.37,0,0,1,.06.19,1.34,1.34,0,0,0,.15.29,1.58,1.58,0,0,1,0,.31c0,.06,0,.08,0,.27a.94.94,0,0,0,0,.5c0,.05,0,.14,0,.15a.1.1,0,0,0,0,.13,1.32,1.32,0,0,1,0,.34c0,.09,0,.18,0,.28s0,.13,0,.2a.61.61,0,0,1,0,.15,2.4,2.4,0,0,1,0,.37,2.47,2.47,0,0,0,0,.39.55.55,0,0,1,0,.22.8.8,0,0,1,.08.16.42.42,0,0,1,.05.1l-.05,0c-.08,0-.09,0-.07.1a.46.46,0,0,1,.1.18s0,0,0,.07a.3.3,0,0,0,0,.1l0,.07s0,0,0,.07a.11.11,0,0,0,0,.17c.06,0,.08.07,0,.12s.07.18.1.27,0,.11,0,.17a.24.24,0,0,1,0,.09,1.23,1.23,0,0,0,0,.24s0,.08,0,.12a.22.22,0,0,1,.06.17,1,1,0,0,0,0,.12c0,.06.05.1.08.15s.08.13.06.15,0,.07,0,.1a.53.53,0,0,1,.13.23s0,0,.08.07l.11.08a.46.46,0,0,1,.09.23c0,.08.07.21.12.22l.14.11a.21.21,0,0,0,.1.09c0,.05,0,.09.07.13s0,0,0,.08a.62.62,0,0,0,.1.2.08.08,0,0,1,0,.09c0,.11,0,.13.05.17l.12.19.08.14c.1.05.09.16.1.27l0,.09s0,.05,0,.1a.32.32,0,0,0,.06.17l.06.08s0,0,0,0,0,0,0,.11a.57.57,0,0,0,0,.14.88.88,0,0,0,0,.18c0,.08,0,.22,0,.29s0,.34.05.47a.16.16,0,0,1,0,.12.25.25,0,0,0,0,.13.3.3,0,0,1,0,.09.45.45,0,0,0,0,.22c0,.07,0,.08-.08.06l-.07,0-.1.09a.62.62,0,0,1-.18.13.4.4,0,0,0-.13.07,1,1,0,0,1-.17.11,2.21,2.21,0,0,0-.36.23l-.07,0-.14.09a.71.71,0,0,1-.21.17.43.43,0,0,0-.12.09.29.29,0,0,1-.14.09,1.46,1.46,0,0,1-.24.17l-.12.14-.2,0-.12.09a.16.16,0,0,1-.09,0c-.08,0-.12,0-.12.08l0,0s0-.08,0-.11a.22.22,0,0,0-.06.12s0,0,0,0-.06,0,0-.06a.11.11,0,0,0,0,0s0,0-.1,0l-.19,0s0,0-.23,0l-.27,0a2.94,2.94,0,0,0-.59,0,.4.4,0,0,1-.17,0c-.06,0-.12,0-.12,0H166c-.21,0-.27,0-.28,0l-.1,0c-.18,0-.19,0-.21-.06a.47.47,0,0,0-.3-.08.39.39,0,0,1-.2,0,.51.51,0,0,0-.3,0l-.21,0c-.27.07-.3.07-.35.11s-.1,0-.09,0a1.18,1.18,0,0,1,.27-.23.22.22,0,0,0,.1-.14.08.08,0,0,0,0,0s0,0-.05,0l-.09,0a.21.21,0,0,0-.1,0,1,1,0,0,0-.26.12.18.18,0,0,0-.08,0c0,.08-.11.09-.1,0s0-.16.11-.25.06,0,.09-.07,0-.07.16-.18a.22.22,0,0,0,0-.1V76.7c-.17,0-.28.1-.39.19s0,0-.06,0l-.05,0c0,.06-.11.13-.14.13a.56.56,0,0,1,.11-.36.17.17,0,0,0,.09-.07l.29-.3a.92.92,0,0,0,.25-.17s.06,0,.06-.08.06-.08.1-.12c1.25-1.13.08,0,.12-.06a.34.34,0,0,1,.11-.07s.06,0,.06,0,.1-.1.21-.13a.16.16,0,0,0,.09,0l.25-.11a.39.39,0,0,1,.11-.06.86.86,0,0,1,.23,0l.18,0a.57.57,0,0,0,.16,0l.19,0a1.94,1.94,0,0,0,.39,0c.14,0,.16,0,.18-.07s0,0,.1,0,.12,0,.12-.06.09-.13.12-.13,0,0,0,0a.32.32,0,0,0,.07-.19v-.24c-.05-.05-.05-.05-.06,0s-.05,0-.08,0,0-.1,0-.12l-.05,0s0,0,0,0a.5.5,0,0,1-.09-.12s0,0,0,0l0,0a2.36,2.36,0,0,0-.46-.17l-.1,0a.09.09,0,0,0-.09,0c-.06,0-.1,0-.1,0s-.13,0-.18,0h0l-.05,0a.38.38,0,0,0-.17,0H165c-.13,0-.14,0-.15,0a.43.43,0,0,0-.16,0,.16.16,0,0,0-.12,0,.68.68,0,0,0-.35-.06l-.09,0a.83.83,0,0,1-.16-.09l-.25,0,0-.06c0-.06-.06-.09-.15-.1s0,0-.08,0-.22,0-.33-.07a.1.1,0,0,1,0-.12c0-.06,0-.07,0-.08s-.06,0-.06.07,0,0,0,0a.45.45,0,0,1-.19,0,.07.07,0,0,1,0,0,.14.14,0,0,0,0-.06s0,0-.06,0,0,0-.08,0a.56.56,0,0,1-.18-.07l0,0s0,0,0-.07-.17-.19-.2-.11,0,0,0,0,0-.08-.06-.12l0,0c-.11,0-.12-.1-.17-.16a1.2,1.2,0,0,1-.25,0c0-.06-.05-.11-.07-.16s-.07-.07-.08-.09h-.08c-.07,0-.1,0-.1-.11a.15.15,0,0,0,0-.09.07.07,0,0,0,0-.06c0-.15-.09-.18-.22-.24a.39.39,0,0,1-.05-.18v-.17c0-.13-.13,0-.16,0s-.05,0-.06-.12a.35.35,0,0,1,0-.13l-.08-.11s0,0-.08-.09a.78.78,0,0,1-.05-.12.3.3,0,0,1,0-.21c0-.07,0-.09-.13-.1s-.13,0-.15.06l-.16.11a1,1,0,0,0-.18.07.24.24,0,0,0-.09,0s0,0,0,.14a.58.58,0,0,1,0,.1l-.15-.05a.16.16,0,0,0-.16.14,1.54,1.54,0,0,0-.16.18c0,.11-.15.1-.25.19a.37.37,0,0,1-.14.1.11.11,0,0,0-.07.08c-.06.13-.18.14-.29.2s-.1,0-.16,0-.09,0-.1.08,0,.06,0,.06l-.12,0s0,0-.07.09-.09.13-.14.18a.12.12,0,0,1-.12.11c-.07,0-.07,0-.08,0s0,.05-.06.05-.07,0-.08.1v.09h-.13c-.15,0-.19,0-.17.1a.3.3,0,0,1,0,.23,1.42,1.42,0,0,1-.22.2l-.06,0c-.07,0-.09-.06-.11-.07s0,0,0-.06-.08,0-.07,0,0,0,0,.05l.08.1v.07l-.07,0c-.08,0-.18.05-.2.05a.24.24,0,0,1-.06.17.19.19,0,0,0-.05.09s0,.08,0,.09-.12,0-.18-.11,0,0,0,.07-.09.13-.15.14a.13.13,0,0,0-.1.09s-.07.07-.1.1a.28.28,0,0,1-.17.13s-.06,0-.07.06a.16.16,0,0,1-.08.13s0,0,0,.08,0,.1-.08.15,0,0,0,.09,0,.08,0,.08-.06,0-.09,0-.09.06-.12.11a.33.33,0,0,0-.15.27v.1h-.09c-.07,0-.11,0-.16.06a2.71,2.71,0,0,1-.19.25c-.09,0-.09.1-.14.16s-.09.08-.13.12a1.43,1.43,0,0,1-.12.21l-.09.11c-.08,0-.11.08-.15.15a.31.31,0,0,1-.08.11.52.52,0,0,0-.12.22.73.73,0,0,0-.13.29c-.14.2-.1.22.07.27,0,0,0,.05-.11,0s-.08,0-.09-.06-.08-.08-.1,0-.11.07-.12.08a.11.11,0,0,0-.16,0s-.06,0-.14.06l-.1,0-.14,0-.18,0a.63.63,0,0,1-.23,0,.5.5,0,0,0-.3,0,.68.68,0,0,0-.2,0l-.14,0h-.24a.76.76,0,0,0-.33,0,.52.52,0,0,0-.23,0h-.26l-.18,0a1,1,0,0,0-.37.08s-.1,0-.15.07a.15.15,0,0,1-.16,0l-.1,0s0,.07,0,.09c-.84-.3-.11,0-1.06,0-.1-.09-.21,0-.33,0s-.15,0-.2,0,0,0,0,0l-.17,0c-.13,0-.15,0-.18,0a.28.28,0,0,0-.14-.12c0-.06,0-.07-.1-.08a2.53,2.53,0,0,0-.28,0,.39.39,0,0,1-.11-.06l0,0s0,.06-.08.1,0,0-.08.06-.15,0-.15,0a.65.65,0,0,1,.13-.16s0,0,0-.07a.59.59,0,0,0-.3-.09h-.07a.58.58,0,0,1-.23.17c-.08,0-.1,0-.11,0a.67.67,0,0,0,.17-.32c0-.09-.09-.09-.14-.14-.09.14-.11.2-.21.27a.37.37,0,0,1-.11.09c-.07,0-.08,0-.1,0s0,0,0,0A.8.8,0,0,0,146,77c-.14-.06-.28,0-.42.13s-.14.13-.2.18a.32.32,0,0,1,.1-.26.93.93,0,0,0,.13-.15s0-.06,0-.13,0,0-.05,0-.17.17-.24.27,0,.07-.05.06,0-.15,0-.21.07-.13.09-.19.1-.17.26-.19c.14-.3.46-.31.68-.48.07,0,.12,0,.18-.08a.34.34,0,0,0,.18-.09.77.77,0,0,1,.39-.26,1.35,1.35,0,0,1,.37-.07l.13,0,.11,0c.25,0,.5,0,.75-.07h.29c.46,0,.53,0,.55,0s0,0,.05,0h.15l.24,0c.11,0,.11,0,.14,0l.06-.08s0,0,0-.06,0,0,0,0l0-.06a.67.67,0,0,0,.07-.11s0,0,.06-.2,0-.13,0-.14,0,0,0,0,0,0-.05,0,0-.09,0-.14a.19.19,0,0,1,0-.13c0-.06,0,0,0-.06s0,0-.05-.07,0-.09,0-.15,0,0,0,0,0,0,0,0-.06-.09,0-.11a.48.48,0,0,0,0-.12s0-.11,0-.2,0-.17,0-.19,0,0,0-.12a.15.15,0,0,1,0-.11,1.2,1.2,0,0,0,0-.28c0-.09-.06-.16-.08-.24s-.05-.06,0-.16a.32.32,0,0,0,0-.08.48.48,0,0,1,0-.19s0,0,0,0a.81.81,0,0,1,0-.27.09.09,0,0,1,0-.09.45.45,0,0,0,0-.24.37.37,0,0,1,0-.09,1.39,1.39,0,0,1-.09-.41.14.14,0,0,0,0-.06.33.33,0,0,0,.06-.08s0,0,0-.1a.6.6,0,0,0,0-.12.05.05,0,0,1,0-.06s0,0,0,0,0,0-.06,0-.06,0,0,0a2.72,2.72,0,0,0,0-.42c0-.06,0-.07,0-.07s0,0-.05,0-.11,0-.11-.06a.64.64,0,0,1,.06-.15.11.11,0,0,0,0-.06c.05,0,0-.14,0-.15s0,0,0,0,.07,0,.1-.07a.11.11,0,0,0,0-.06s0,0,0,0a.4.4,0,0,0,0-.16.08.08,0,0,1,0,0,1.81,1.81,0,0,1,.05-.32.1.1,0,0,1,0-.12s0,0,0,0-.09-.08-.14-.09l-.11,0a.27.27,0,0,0-.34.18c0,.12-.12.22-.14.16s0-.06,0-.11.06-.26,0-.24h-.06a.53.53,0,0,0-.13.16.08.08,0,0,0,0,.06c0,.06-.06.1-.1.07a.47.47,0,0,1,0-.24.39.39,0,0,0-.11-.06c-.14,0-.11,0-.11.19a.51.51,0,0,0,0,.14s0,0-.05.07-.09,0-.09-.06a.93.93,0,0,1,.07-.2s0,0,0,0-.13.06-.15.14-.05.15-.09.15-.05,0,0-.09.06-.21,0-.22-.16.09-.23.14,0,0,0-.07,0-.07,0-.08a.11.11,0,0,0-.13.06s0,0-.07,0,0,0,0,0a0,0,0,0,0,0,0s-.08-.06-.12-.06l0,0s0,0-.06,0-.09,0-.09.08,0,0,0,0-.1,0-.15,0l-.14-.11a.09.09,0,0,0-.1,0c-.08,0-.09,0-.08,0s0-.08,0-.08,0,0-.05,0l0,0s-.07,0-.09.08a.06.06,0,0,1-.05,0s0,0,0,0v-.05h-.12c-.09,0-.12,0-.12,0a.15.15,0,0,1-.08.11s-.05,0,0,0,0-.05,0-.05-.15,0-.24,0-.06.06-.15.07-.07,0-.07,0,0,0,0,0,0,0-.05,0h-.16c-.06,0-.08,0-.08,0s-.11,0-.11,0,0,0-.2,0-.29,0-.3,0-.11,0-.13,0a.05.05,0,0,0-.09,0s0,0,0,0,0,0,0,0,0,0,0,0,0,0,0,0,0,0,0,0l-.07-.14s0,0,0,0,0,0,0,.07a.77.77,0,0,1,0,.15.15.15,0,0,0,0,.16l.06.09a1.11,1.11,0,0,0,.09.31.15.15,0,0,0,0,.09s0,0,0,0a.57.57,0,0,0,0,.13.08.08,0,0,0,0,0,.35.35,0,0,0,.11.15s0,0,0,0a.74.74,0,0,1,.19.36.25.25,0,0,0,.08.21,1.29,1.29,0,0,1,.09.16l0,0a.46.46,0,0,0,.09.21c.07.08.09.17.05.21s0,.12,0,.13a2.11,2.11,0,0,0,.21.31s.14.16.12.18a.06.06,0,0,0,0,0l.05.14c0,.06,0,.09,0,.11s0,.08,0,.08,0,.07,0,.12a.38.38,0,0,0,.15.24.25.25,0,0,1,.11.22,1.17,1.17,0,0,1,.07.25c0,.14,0,.14,0,.17a.1.1,0,0,1,0,.08s0,.06,0,.09,0,0,0,.09,0,.16-.06.16l0,0s0,0,0,.07a.39.39,0,0,0,.06.21s0,0,0,0l-.1,0c-.05,0-.05,0,0,.07s-.07.16-.14.26a.61.61,0,0,0,0,.15c0,.07,0,.11,0,.1a.11.11,0,0,0-.11.08.55.55,0,0,0-.13.17s0,0,0,0a.78.78,0,0,1,0,.14l-.13.07s-.06,0,0,.08a.25.25,0,0,1,0,.09s0,.07-.05.08-.06,0-.08.14,0,.08-.06.09-.16,0-.16.07a.14.14,0,0,1,0,.06s0,.12,0,.32a.54.54,0,0,0-.14.34s-.06,0-.09.08a.13.13,0,0,0-.07.1.26.26,0,0,1,0,.1.19.19,0,0,1-.09.09.77.77,0,0,1-.16.07l-.29.08-.1.07c0,.17-.1.06-.15.1s-.13,0-.19,0,0,0,0,0-.07,0-.11,0-.11.08-.18.11,0,0-.07,0a.15.15,0,0,1,0-.06s0,0,0,0l-.11,0c-.06,0-.09,0-.11,0s0,0-.05,0,0,0-.17,0l-.19,0a.33.33,0,0,0-.22,0s-.07,0-.15,0-.13-.07-.15-.06a.41.41,0,0,1-.22,0s0,0,0,0,0,0-.23,0a.72.72,0,0,0-.2,0,1,1,0,0,1-.3.09,1.18,1.18,0,0,0-.27,0,.29.29,0,0,1-.3,0,1.83,1.83,0,0,1-.33,0,.44.44,0,0,0-.26,0,.76.76,0,0,0-.63,0s-.08.08-.1,0,0,0-.07.07,0,.09,0,.1-.09,0-.09,0l0,0a.15.15,0,0,0,0-.08s0-.05,0-.05a2.53,2.53,0,0,1-.36.12s-.08,0-.06-.06l.42-.23c.06,0,.08-.06.06-.09s-.07,0-.1,0a.78.78,0,0,0-.49.18c-.07,0-.08,0-.08,0a.07.07,0,0,1,0,0,1.08,1.08,0,0,1,.22-.21,2.13,2.13,0,0,0,.3-.3s0,0,0,0h0a.67.67,0,0,0-.3.13s-.05,0-.07.06-.11.08-.14,0,.1-.16.16-.25.17-.25.26-.37.29-.31.44-.45,0,0,.06-.06.06,0,.09-.07,0-.06.07-.06a1.28,1.28,0,0,0,.21-.14.75.75,0,0,1,.15-.09,1.05,1.05,0,0,1,.21-.12,1.22,1.22,0,0,1,.27-.06.27.27,0,0,0,.14,0,.6.6,0,0,1,.16-.08s.09,0,.19,0h.41c.1,0,.19,0,.3,0h.19a.61.61,0,0,0,.07-.52s0,0-.05-.06a2.11,2.11,0,0,0-.21-.31c0-.06-.1-.06-.16-.09a1.44,1.44,0,0,1-.32-.23c-.08,0,0-.06,0-.06s-.07-.07-.11-.08a5.49,5.49,0,0,1-.41-.44c0-.1-.11-.14-.18-.19a.36.36,0,0,1-.14-.11,2.18,2.18,0,0,1-.31-.22s-.11,0-.17-.06l-.11-.07a.93.93,0,0,0,0-.1c0-.11-.13-.11-.21-.14s-.07,0-.07-.07a.84.84,0,0,0-.05-.17c0-.06-.1-.15-.14-.15l-.1-.17h-.1c-.14,0-.17-.08-.23-.19L138.6,71a1.51,1.51,0,0,1-.26-.18s-.07,0-.07,0-.05-.13-.08-.15l0,0s-.1,0-.14,0-.1-.06-.16-.12,0-.21,0-.25l-.1,0c-.05,0-.05,0-.05-.07a.57.57,0,0,0,0-.12c0-.07-.11-.09-.17-.14s-.09,0-.07,0,0,0,0-.09-.19-.24-.34-.32,0,0-.05,0a1.87,1.87,0,0,1-.33.3c-.06,0-.09.07-.09.17V70c-.06,0-.1,0-.12,0a.73.73,0,0,1-.09.23s0,.07,0,.07l-.06,0c-.05,0-.08.09-.09.2s0,.14-.1.14-.1,0-.1.09a1.12,1.12,0,0,1-.32.45.61.61,0,0,0,.05.12s0,0-.07,0l-.17.11c-.06,0-.06,0-.07.1s0,.08-.09.09,0,.06-.08.1,0,0-.09,0-.12,0-.07.15l0,.14c0,.07,0,.07-.09,0s-.05,0-.07,0,0,.05,0,.08,0,0-.08,0-.13,0-.23.13,0,0-.08.09-.1.11-.23.09,0,.12,0,.18a.62.62,0,0,0,0,.11l0,0c-.14,0-.22.11-.31.2a.69.69,0,0,1-.07.23h-.22a.22.22,0,0,0,0,.08c0,.11,0,.13-.06.14s-.1.06-.16.09,0,.07-.07.07-.06,0-.06.08,0,0-.06.06,0,0-.13,0l-.13,0c-.07,0-.07.08-.09.11s0,.07-.15.13-.1.06-.1.07,0,.07-.07.1,0,0-.11,0-.14,0-.13.07-.13.14-.23.19-.06,0-.07,0,0,0,0,0a.57.57,0,0,0,0,.15l-.09,0c-.08,0-.12,0-.16.09a.29.29,0,0,0-.18.08.08.08,0,0,0,0,.1c0,.08-.06.11-.09.16s-.07,0-.11,0-.07,0-.07,0a.54.54,0,0,1-.07.19c0,.11-.08.14-.14.22s-.11.08-.15.08a.58.58,0,0,0-.25.18l-.21.25s0,0-.08,0-.1,0-.1.07,0,.06,0,.06a.5.5,0,0,0-.13,0h-.09v.07c0,.08-.09.2-.13.2s-.05-.11-.07-.16l-.15.27c-.08,0-.06.12-.07.2s0,.06,0,0-.06-.11-.08-.14-.1.06-.14.14,0,0-.08,0l-.12-.07a1,1,0,0,0-.1.27s0,0-.08,0-.12-.06-.14,0l-.06.07a.12.12,0,0,0,0,.14s0,0,0,0,0,0-.06,0,0-.13-.18,0a.11.11,0,0,1,0,.06s0,0,0,0h-.07s-.15.07-.16.12l0,.07s0,0-.07,0-.11,0-.12.07v.06h-.18c-.17,0-.18,0-.23,0s-.07,0-.08.13a1.73,1.73,0,0,1-.21.13s0,.08-.12.11-.14.09-.21.13a.49.49,0,0,0-.16.1.88.88,0,0,0-.38-.07h-.56a.86.86,0,0,0-.23,0c-.18,0-.35,0-.54.07a.39.39,0,0,0-.39-.06c0,.08-.08.11-.13.1a.8.8,0,0,1-.25,0c-.09-.07-.13,0-.2.07a.51.51,0,0,1-.22.06.28.28,0,0,1-.2,0Z" transform="translate(-14.34 -49.51)"/><path class="cls-5" d="M43.75,194.29c7.81,6.7,9.76,16.12,7.1,18.34s-10.17-2.39-16.76-10.3S27,184,27,184C27.33,186.2,37.57,189,43.75,194.29Z" transform="translate(-14.34 -49.51)"/><path class="cls-5" d="M50.68,191.72c-1.57,10.17,3.07,18.6,6.54,18.55s6.17-8.43,6-18.72S56.71,173,56.71,173C57.88,174.9,51.92,183.67,50.68,191.72Z" transform="translate(-14.34 -49.51)"/><path class="cls-5" d="M34.06,168c6.22,8.19,6.15,17.81,3.08,19.42S27.7,183,22.92,173.86s-3.08-19.43-3.08-19.43C19.71,156.66,29.13,161.54,34.06,168Z" transform="translate(-14.34 -49.51)"/><path class="cls-5" d="M41.37,167c-3.68,9.61-.91,18.82,2.49,19.51s7.81-6.94,9.84-17S51.21,150,51.21,150C52,152.05,44.28,159.37,41.37,167Z" transform="translate(-14.34 -49.51)"/><path class="cls-5" d="M30,140.39c5.41,9.69,3.7,19.44.07,20.41s-9.54-6.61-13.21-16.92-.07-20.41-.07-20.41C16.25,125.71,25.7,132.72,30,140.39Z" transform="translate(-14.34 -49.51)"/><path class="cls-5" d="M38.14,140.92c-5.65,9-4.19,18.93-.59,20.37s9.69-5.35,13.62-15.16.58-20.37.58-20.37C52.21,128.07,42.6,133.83,38.14,140.92Z" transform="translate(-14.34 -49.51)"/><path class="cls-5" d="M28.79,111.52c4.84,10,2.57,19.63-1.11,20.38s-9.14-7.14-12.21-17.65,1.1-20.38,1.1-20.38C15.93,96.08,25,103.62,28.79,111.52Z" transform="translate(-14.34 -49.51)"/><path class="cls-5" d="M36.91,112.53c-6.15,8.62-5.27,18.65-1.76,20.3s10-4.79,14.47-14.35,1.75-20.31,1.75-20.31C51.7,100.5,41.77,105.7,36.91,112.53Z" transform="translate(-14.34 -49.51)"/><path class="cls-5" d="M42,97.24c-1.3,8.85-5.33,15.58-9,15s-5.62-8.14-4.33-17,9-15,9-15S43.31,88.4,42,97.24Z" transform="translate(-14.34 -49.51)"/><path class="cls-5" d="M235.81,189.72c-7.72,6.81-9.54,16.26-6.84,18.44s10.13-2.53,16.61-10.52,6.85-18.44,6.85-18.44C252.11,181.41,241.92,184.34,235.81,189.72Z" transform="translate(-14.34 -49.51)"/><path class="cls-5" d="M228.84,187.26c1.72,10.14-2.81,18.63-6.28,18.63s-6.29-8.34-6.29-18.63,6.29-18.64,6.29-18.64C221.41,170.53,227.49,179.23,228.84,187.26Z" transform="translate(-14.34 -49.51)"/><path class="cls-5" d="M245.49,163.48c-6.23,8.2-6.16,17.82-3.08,19.43s9.44-4.48,14.21-13.59,3.08-19.43,3.08-19.43C259.83,152.12,250.41,157,245.49,163.48Z" transform="translate(-14.34 -49.51)"/><path class="cls-5" d="M238.17,162.44c3.68,9.61.91,18.82-2.49,19.51s-7.81-6.95-9.83-17,2.49-19.51,2.49-19.51C227.59,147.51,235.26,154.83,238.17,162.44Z" transform="translate(-14.34 -49.51)"/><path class="cls-5" d="M249.57,135.84c-5.41,9.69-3.7,19.45-.07,20.42s9.54-6.61,13.21-16.92.07-20.41.07-20.41C263.3,121.16,253.85,128.18,249.57,135.84Z" transform="translate(-14.34 -49.51)"/><path class="cls-5" d="M241.41,136.38c5.64,9,4.18,18.93.58,20.37s-9.69-5.35-13.61-15.16-.59-20.37-.59-20.37C227.33,123.52,236.94,129.29,241.41,136.38Z" transform="translate(-14.34 -49.51)"/><path class="cls-5" d="M250.76,107c-4.84,10-2.58,19.63,1.1,20.38s9.15-7.15,12.22-17.65S263,89.33,263,89.33C263.62,91.53,254.59,99.08,250.76,107Z" transform="translate(-14.34 -49.51)"/><path class="cls-5" d="M242.64,108c6.15,8.63,5.26,18.66,1.75,20.3s-10-4.78-14.46-14.35-1.76-20.3-1.76-20.3C227.84,96,237.77,101.16,242.64,108Z" transform="translate(-14.34 -49.51)"/><path class="cls-5" d="M237.53,92.7c1.29,8.85,5.33,15.58,9,15s5.61-8.14,4.32-17-9-15-9-15S236.23,83.85,237.53,92.7Z" transform="translate(-14.34 -49.51)"/></svg>